<svg xmlns="http://www.w3.org/2000/svg" width="91" height="91"><rect width="100" height="100" fill="none"/><g class="currentLayer"><title>  Layer 1</title><path d="M45.3 2.6C21.8 2.6 2.8 21.6 2.8 45.1s19 42.5 42.5 42.5S87.8 68.6 87.8 45.1 68.8 2.6 45.3 2.6zM45.1 68.9c0 0-2 1.3-3.3 1.3 -0.1 0.1-0.2 0.1-0.2 0.1l0-0.1c-0.3 0-0.6-0.1-0.9-0.1l-0.4-0.1c-2.4-0.6-3.6-2.9-3-5.3l3.3-13.2 1.5-6c1.4-5.5-4.4 1.2-5.5-1.4 -0.8-1.7 4.5-5.2 8.3-7.9 0 0 2-1.3 3.3-1.3 0.1-0.1 0.2-0.1 0.2-0.1l0 0.1c0.3 0 0.6 0.1 0.9 0.1l0.4 0.1c2.4 0.6 3.8 3 3.2 5.3l-3.3 13.2 -1.5 6c-1.4 5.5 4.3-1.2 5.4 1.4C54.3 62.7 48.9 66.2 45.1 68.9zM53.4 27.6c-0.8 3.3-4.2 5.3-7.4 4.5 -3.3-0.8-5.3-4.2-4.5-7.4 0.8-3.3 4.2-5.3 7.4-4.5C52.2 20.9 54.2 24.3 53.4 27.6z" class="selected" fill="#36d7b7"/></g></svg>