<svg xmlns="http://www.w3.org/2000/svg" width="40" height="40"><style>.a{fill:#fff;}</style><rect width="100" height="100" fill="none"/><g class="currentLayer"><title>  Layer 1</title><g class="selected"><g class="a"><path d="M28.5 21.2C28.5 20.9 28.6 20.5 28.6 20 28.6 19.6 28.6 19.2 28.5 18.9L31 16.9C31.2 16.6 31.2 16.4 31.1 16.1L28.7 12C28.6 11.9 28.4 11.8 28 11.9L25.1 13.1C24.5 12.6 23.8 12.3 23.1 11.9L22.6 8.9C22.7 8.5 22.3 8.3 22.1 8.3L17.4 8.3C17.2 8.3 16.8 8.5 16.8 8.7L16.3 11.9C15.6 12.2 15 12.6 14.3 13.1L11.5 11.9C11.1 11.8 10.9 11.9 10.7 12.2L8.3 16.3C8.2 16.4 8.3 16.7 8.5 17L11 18.9C11 19.2 10.9 19.6 10.9 20 10.9 20.5 10.9 20.9 11 21.2L8.5 23.2C8.3 23.4 8.3 23.7 8.4 23.9L10.8 28C10.9 28.1 11.1 28.3 11.5 28.1L14.4 27C15 27.4 15.7 27.8 16.4 28.1L16.9 31.2C16.9 31.4 17.2 31.7 17.5 31.7L22.2 31.7C22.5 31.7 22.8 31.4 22.8 31.2L23.3 28.1C24 27.8 24.7 27.4 25.3 27L28.2 28.1C28.5 28.3 28.8 28.1 29 27.9L31.3 23.8C31.4 23.6 31.4 23.2 31.2 23.1L28.5 21.2 28.5 21.2zM19.8 24.1C17.5 24.1 15.6 22.3 15.6 20 15.6 17.8 17.5 15.9 19.8 15.9 22 15.9 23.9 17.8 23.9 20 23.9 22.3 22 24.1 19.8 24.1L19.8 24.1z" class="a"/></g></g></g></svg>